<svg width="427" height="422" viewBox="0 0 427 422" fill="none" xmlns="http://www.w3.org/2000/svg">
<g opacity="0.2">
<path d="M393.1 203.116C409.575 202.457 420.174 207.285 424.895 217.599C429.779 228.269 425.735 241.52 412.764 257.352C399.629 272.828 380.436 286.345 355.184 297.904C313.572 316.952 274.198 319.273 237.062 304.869C199.925 290.465 171.671 262.101 152.297 219.778C131.947 175.32 128.522 134.945 142.022 98.6531C155.715 61.8425 184.257 33.5063 227.647 13.6446C250.765 3.06257 272.184 -1.36431 291.903 0.36395C311.459 1.73654 324.168 8.8247 330.028 21.6284C336.052 34.7878 330.016 47.445 311.92 59.6C300.917 48.7198 288 42.5872 273.171 41.202C258.533 39.2985 244.813 41.2771 232.009 47.1379C206.046 59.0224 189.265 78.7489 181.666 106.317C174.067 133.886 177.023 162.43 190.536 191.95C206.327 226.449 227.872 251.431 255.17 266.898C282.468 282.364 311.233 283.178 341.464 269.34C354.979 263.153 366.399 254.269 375.724 242.688C385.404 230.944 391.196 217.753 393.1 203.116Z" fill="url(#paint0_linear_710_6389)"/>
<path d="M384.005 216.821C400.481 216.162 411.079 220.99 415.8 231.304C420.684 241.974 416.64 255.225 403.669 271.056C390.534 286.533 371.341 300.05 346.09 311.609C304.477 330.657 265.103 332.978 227.967 318.574C190.831 304.17 162.576 275.806 143.203 233.482C122.853 189.025 119.428 148.65 132.928 112.358C146.621 75.5474 175.162 47.2113 218.553 27.3496C241.671 16.7675 263.089 12.3406 282.808 14.0689C302.364 15.4415 315.073 22.5297 320.934 35.3334C326.957 48.4928 320.921 61.15 302.825 73.3049C291.822 62.4248 278.906 56.2921 264.076 54.907C249.439 53.0034 235.718 54.9821 222.915 60.8429C196.951 72.7273 180.17 92.4538 172.571 120.022C164.972 147.591 167.929 176.135 181.441 205.655C197.233 240.154 218.778 265.136 246.076 280.603C273.374 296.069 302.138 296.883 332.369 283.045C345.884 276.858 357.304 267.974 366.629 256.393C376.309 244.649 382.101 231.458 384.005 216.821Z" fill="url(#paint1_linear_710_6389)"/>
</g>
<g opacity="0.2">
<path d="M37.662 213.053C21.177 213.398 10.6725 208.369 6.1486 197.967C1.46873 187.206 5.76418 174.034 19.035 158.453C32.4618 143.23 51.9089 130.08 77.3763 119.004C119.344 100.753 158.755 99.1817 195.61 114.291C232.465 129.4 260.175 158.297 278.738 200.982C298.238 245.819 300.893 286.251 286.704 322.28C272.312 358.823 243.236 386.61 199.475 405.642C176.16 415.782 154.661 419.8 134.978 417.696C115.452 415.951 102.88 408.622 97.2646 395.709C91.4928 382.437 97.769 369.897 116.093 358.089C126.887 369.177 139.684 375.555 154.485 377.222C169.083 379.404 182.839 377.687 195.752 372.071C221.937 360.684 239.091 341.281 247.214 313.862C255.337 286.443 252.924 257.848 239.977 228.076C224.845 193.282 203.78 167.894 176.781 151.911C149.783 135.927 121.039 134.565 90.55 147.825C76.9196 153.753 65.3325 162.417 55.7888 173.819C45.8863 185.377 39.8441 198.455 37.662 213.053Z" fill="url(#paint2_linear_710_6389)"/>
<path d="M47.0162 199.524C30.5311 199.868 20.0266 194.84 15.5028 184.437C10.8229 173.677 15.1183 160.505 28.3892 144.923C41.816 129.7 61.2631 116.551 86.7305 105.475C128.698 87.2237 168.109 85.6525 204.964 100.762C241.819 115.871 269.529 144.768 288.092 187.452C307.592 232.289 310.247 272.722 296.058 308.751C281.666 345.294 252.59 373.081 208.829 392.113C185.514 402.252 164.015 406.27 144.332 404.167C124.806 402.422 112.235 395.093 106.619 382.18C100.847 368.908 107.123 356.368 125.447 344.56C136.241 355.648 149.038 362.026 163.839 363.693C178.437 365.875 192.193 364.158 205.106 358.542C231.291 347.155 248.445 327.751 256.568 300.333C264.691 272.914 262.278 244.318 249.331 214.547C234.199 179.753 213.134 154.365 186.136 138.381C159.137 122.398 130.393 121.036 99.9042 134.296C86.2738 140.223 74.6867 148.888 65.1429 160.29C55.2405 171.848 49.1982 184.926 47.0162 199.524Z" fill="url(#paint3_linear_710_6389)"/>
</g>
<defs>
<linearGradient id="paint0_linear_710_6389" x1="414.116" y1="226.876" x2="148.727" y2="220.163" gradientUnits="userSpaceOnUse">
<stop stop-color="#22DAC4"/>
<stop offset="0.227291" stop-color="#22DAC4"/>
<stop offset="0.459098" stop-color="#00C7FF"/>
<stop offset="0.811736" stop-color="#0055FF"/>
<stop offset="0.992" stop-color="#191931"/>
<stop offset="1" stop-color="#191931"/>
</linearGradient>
<linearGradient id="paint1_linear_710_6389" x1="413.702" y1="197.44" x2="159.049" y2="310.284" gradientUnits="userSpaceOnUse">
<stop stop-color="#22DAC4" stop-opacity="0"/>
<stop offset="0.227291" stop-color="#22DAC4" stop-opacity="0"/>
<stop offset="0.459098" stop-color="#00C7FF"/>
<stop offset="0.811736" stop-color="#0055FF"/>
<stop offset="0.992" stop-color="#191931"/>
<stop offset="1" stop-color="#191931"/>
</linearGradient>
<linearGradient id="paint2_linear_710_6389" x1="17.1025" y1="188.897" x2="282.315" y2="200.664" gradientUnits="userSpaceOnUse">
<stop stop-color="#22DAC4"/>
<stop offset="0.227291" stop-color="#22DAC4"/>
<stop offset="0.459098" stop-color="#00C7FF"/>
<stop offset="0.811736" stop-color="#0055FF"/>
<stop offset="0.992" stop-color="#191931"/>
<stop offset="1" stop-color="#191931"/>
</linearGradient>
<linearGradient id="paint3_linear_710_6389" x1="16.9552" y1="218.336" x2="273.712" y2="110.363" gradientUnits="userSpaceOnUse">
<stop stop-color="#22DAC4" stop-opacity="0"/>
<stop offset="0.227291" stop-color="#22DAC4" stop-opacity="0"/>
<stop offset="0.459098" stop-color="#00C7FF"/>
<stop offset="0.811736" stop-color="#0055FF"/>
<stop offset="0.992" stop-color="#191931"/>
<stop offset="1" stop-color="#191931"/>
</linearGradient>
</defs>
</svg>
