<svg width="194" height="344" viewBox="0 0 194 344" fill="none" xmlns="http://www.w3.org/2000/svg">
<rect width="209.044" height="215.076" rx="20" transform="matrix(-0.568944 0.822376 -0.713047 -0.701116 298.783 159.16)" fill="url(#paint0_linear_710_6402)"/>
<mask id="path-2-inside-1_710_6402" fill="white">
<path d="M176.139 24.853C168.258 17.1138 156.874 18.2714 150.712 27.4386L54.8949 169.988C48.733 179.156 50.1267 192.861 58.0078 200.6L182.906 323.251C190.787 330.99 202.171 329.833 208.333 320.665L304.15 178.116C310.312 168.948 308.919 155.243 301.038 147.504L176.139 24.853Z"/>
</mask>
<path d="M176.139 24.853C168.258 17.1138 156.874 18.2714 150.712 27.4386L54.8949 169.988C48.733 179.156 50.1267 192.861 58.0078 200.6L182.906 323.251C190.787 330.99 202.171 329.833 208.333 320.665L304.15 178.116C310.312 168.948 308.919 155.243 301.038 147.504L176.139 24.853Z" fill="url(#paint1_linear_710_6402)"/>
<path d="M161.869 10.8398L43.7378 186.587L161.869 10.8398ZM182.906 323.251C190.984 331.184 202.653 329.997 208.969 320.601L304.228 178.881C310.544 169.484 309.116 155.436 301.038 147.504C308.722 155.049 309.956 168.598 303.794 177.765L207.977 320.315C201.815 329.482 190.59 330.797 182.906 323.251ZM315.308 161.517L161.869 10.8398L315.308 161.517ZM43.7378 186.587L197.176 337.264L43.7378 186.587Z" fill="#22DAC4" mask="url(#path-2-inside-1_710_6402)"/>
<defs>
<linearGradient id="paint0_linear_710_6402" x1="0" y1="107.538" x2="209.044" y2="107.538" gradientUnits="userSpaceOnUse">
<stop offset="0.0189996" stop-color="#05312C"/>
<stop offset="0.514" stop-color="#22DAC4"/>
<stop offset="1" stop-color="#05312C"/>
</linearGradient>
<linearGradient id="paint1_linear_710_6402" x1="238.588" y1="86.1783" x2="92.7361" y2="234.704" gradientUnits="userSpaceOnUse">
<stop stop-color="#05312C"/>
<stop offset="1" stop-color="#22DAC4"/>
</linearGradient>
</defs>
</svg>
