<svg width="309" height="302" viewBox="0 0 309 302" fill="none" xmlns="http://www.w3.org/2000/svg">
<g opacity="0.5">
<rect x="77.0103" y="-40.7188" width="393.983" height="87.8923" rx="43.9461" transform="rotate(59.8408 77.0103 -40.7188)" fill="url(#paint0_linear_710_6401)" stroke="#22DAC4"/>
<rect x="0.684056" y="0.179072" width="405.157" height="87.8923" rx="43.9461" transform="matrix(0.504984 0.863129 0.863129 -0.504984 9.23874 0.901728)" fill="url(#paint1_linear_710_6401)" stroke="#22DAC4"/>
</g>
<g opacity="0.75">
<rect x="163.01" y="-82.7188" width="393.983" height="87.8923" rx="43.9461" transform="rotate(59.8408 163.01 -82.7188)" fill="url(#paint2_linear_710_6401)" stroke="#22DAC4"/>
<rect x="0.684056" y="0.179072" width="405.157" height="87.8923" rx="43.9461" transform="matrix(0.504984 0.863129 0.863129 -0.504984 95.2387 -41.0983)" fill="url(#paint3_linear_710_6401)" stroke="#22DAC4"/>
</g>
<rect x="172.01" y="-230.719" width="393.983" height="87.8923" rx="43.9461" transform="rotate(59.8408 172.01 -230.719)" fill="url(#paint4_linear_710_6401)" stroke="#22DAC4"/>
<rect x="0.684056" y="0.179072" width="405.157" height="87.8923" rx="43.9461" transform="matrix(0.504984 0.863129 0.863129 -0.504984 104.239 -189.098)" fill="url(#paint5_linear_710_6401)" stroke="#22DAC4"/>
<defs>
<linearGradient id="paint0_linear_710_6401" x1="77.1914" y1="3.04378" x2="472.174" y2="3.04378" gradientUnits="userSpaceOnUse">
<stop offset="0.0189996" stop-color="#05312C"/>
<stop offset="0.514" stop-color="#22DAC4"/>
<stop offset="1" stop-color="#05312C"/>
</linearGradient>
<linearGradient id="paint1_linear_710_6401" x1="0" y1="44.4461" x2="406.157" y2="44.4461" gradientUnits="userSpaceOnUse">
<stop stop-color="#05312C"/>
<stop offset="1" stop-color="#22DAC4"/>
</linearGradient>
<linearGradient id="paint2_linear_710_6401" x1="163.191" y1="-38.9562" x2="558.174" y2="-38.9562" gradientUnits="userSpaceOnUse">
<stop offset="0.0189996" stop-color="#05312C"/>
<stop offset="0.514" stop-color="#22DAC4"/>
<stop offset="1" stop-color="#05312C"/>
</linearGradient>
<linearGradient id="paint3_linear_710_6401" x1="0" y1="44.4461" x2="406.157" y2="44.4461" gradientUnits="userSpaceOnUse">
<stop stop-color="#05312C"/>
<stop offset="1" stop-color="#22DAC4"/>
</linearGradient>
<linearGradient id="paint4_linear_710_6401" x1="172.191" y1="-186.956" x2="567.174" y2="-186.956" gradientUnits="userSpaceOnUse">
<stop offset="0.0189996" stop-color="#05312C"/>
<stop offset="0.514" stop-color="#22DAC4"/>
<stop offset="1" stop-color="#05312C"/>
</linearGradient>
<linearGradient id="paint5_linear_710_6401" x1="0" y1="44.4461" x2="406.157" y2="44.4461" gradientUnits="userSpaceOnUse">
<stop stop-color="#05312C"/>
<stop offset="1" stop-color="#22DAC4"/>
</linearGradient>
</defs>
</svg>
